Antonio-Bold.ufo
<glyph name="ampersand" format="2">
  <advance width="1052"/>
  <unicode hex="0026"/>
  <outline>
    <contour>
      <point x="394" y="-20" type="curve" smooth="yes"/>
      <point x="528" y="-20"/>
      <point x="619" y="41"/>
      <point x="693" y="130" type="curve"/>
      <point x="750" y="0" type="line"/>
      <point x="998" y="0" type="line"/>
      <point x="840" y="369" type="line"/>
      <point x="899" y="481"/>
      <point x="958" y="598"/>
      <point x="1041" y="690" type="curve"/>
      <point x="932" y="874" type="line"/>
      <point x="855" y="782"/>
      <point x="794" y="688"/>
      <point x="742" y="601" type="curve"/>
      <point x="613" y="922" type="line"/>
      <point x="736" y="1079"/>
      <point x="847" y="1247"/>
      <point x="847" y="1434" type="curve" smooth="yes"/>
      <point x="847" y="1656"/>
      <point x="743" y="1781"/>
      <point x="531" y="1781" type="curve" smooth="yes"/>
      <point x="336" y="1781"/>
      <point x="208" y="1658"/>
      <point x="208" y="1431" type="curve" smooth="yes"/>
      <point x="208" y="1333"/>
      <point x="269" y="1142"/>
      <point x="351" y="930" type="curve"/>
      <point x="209" y="763"/>
      <point x="73" y="583"/>
      <point x="73" y="378" type="curve" smooth="yes"/>
      <point x="73" y="121"/>
      <point x="195" y="-20"/>
    </contour>
    <contour>
      <point x="439" y="209" type="curve" smooth="yes"/>
      <point x="342" y="209"/>
      <point x="296" y="276"/>
      <point x="300" y="403" type="curve" smooth="yes"/>
      <point x="304" y="501"/>
      <point x="364" y="602"/>
      <point x="442" y="706" type="curve"/>
      <point x="597" y="346" type="line"/>
      <point x="545" y="262"/>
      <point x="498" y="209"/>
    </contour>
    <contour>
      <point x="530" y="1144" type="curve"/>
      <point x="482" y="1280"/>
      <point x="451" y="1388"/>
      <point x="451" y="1441" type="curve" smooth="yes"/>
      <point x="451" y="1515"/>
      <point x="467" y="1600"/>
      <point x="561" y="1600" type="curve" smooth="yes"/>
      <point x="639" y="1600"/>
      <point x="662" y="1553"/>
      <point x="662" y="1438" type="curve" smooth="yes"/>
      <point x="662" y="1341"/>
      <point x="607" y="1244"/>
    </contour>
  </outline>
</glyph>
<glyph name="two" format="2">
  <advance width="951"/>
  <unicode hex="0032"/>
  <outline>
    <contour>
      <point x="160" y="0" type="line"/>
      <point x="821" y="0" type="line"/>
      <point x="821" y="210" type="line"/>
      <point x="415" y="210" type="line"/>
      <point x="451" y="362"/>
      <point x="516" y="480"/>
      <point x="581" y="596" type="curve" smooth="yes"/>
      <point x="743" y="884" type="line" smooth="yes"/>
      <point x="806" y="996"/>
      <point x="854" y="1129"/>
      <point x="854" y="1293" type="curve" smooth="yes"/>
      <point x="854" y="1561"/>
      <point x="760" y="1780"/>
      <point x="511" y="1780" type="curve" smooth="yes"/>
      <point x="189" y="1780"/>
      <point x="141" y="1553"/>
      <point x="141" y="1173" type="curve" smooth="yes"/>
      <point x="141" y="1065" type="line"/>
      <point x="397" y="1065" type="line"/>
      <point x="397" y="1288" type="line" smooth="yes"/>
      <point x="397" y="1513"/>
      <point x="444" y="1549"/>
      <point x="504" y="1549" type="curve" smooth="yes"/>
      <point x="564" y="1549"/>
      <point x="600" y="1497"/>
      <point x="600" y="1304" type="curve" smooth="yes"/>
      <point x="600" y="1134"/>
      <point x="570" y="1048"/>
      <point x="522" y="968" type="curve" smooth="yes"/>
      <point x="348" y="679" type="line" smooth="yes"/>
      <point x="221" y="468"/>
      <point x="160" y="296"/>
      <point x="160" y="104" type="curve" smooth="yes"/>
    </contour>
  </outline>
</glyph>
<glyph name="semicolon" format="2">
  <advance width="561"/>
  <unicode hex="003B"/>
  <outline>
    <contour>
      <point x="184" y="-107" type="line"/>
      <point x="326" y="-107" type="line"/>
      <point x="435" y="264" type="line"/>
      <point x="435" y="533" type="line"/>
      <point x="132" y="533" type="line"/>
      <point x="132" y="255" type="line"/>
      <point x="262" y="255" type="line"/>
    </contour>
    <contour>
      <point x="136" y="1038" type="line"/>
      <point x="419" y="1038" type="line"/>
      <point x="419" y="1307" type="line"/>
      <point x="136" y="1307" type="line"/>
    </contour>
  </outline>
</glyph>
<glyph name="D" format="2">
  <advance width="1008"/>
  <unicode hex="0044"/>
  <anchor x="504" y="0" name="bottom"/>
  <anchor x="284" y="880" name="center"/>
  <anchor x="474" y="1760" name="top"/>
  <outline>
    <contour>
      <point x="132" y="0" type="line"/>
      <point x="518" y="0" type="line" smooth="yes"/>
      <point x="794" y="0"/>
      <point x="897" y="167"/>
      <point x="897" y="514" type="curve" smooth="yes"/>
      <point x="896" y="1308" type="line" smooth="yes"/>
      <point x="896" y="1594"/>
      <point x="794" y="1760"/>
      <point x="527" y="1760" type="curve" smooth="yes"/>
      <point x="132" y="1760" type="line"/>
    </contour>
    <contour>
      <point x="400" y="208" type="line"/>
      <point x="400" y="1554" type="line"/>
      <point x="479" y="1554" type="line" smooth="yes"/>
      <point x="590" y="1554"/>
      <point x="628" y="1481"/>
      <point x="628" y="1301" type="curve" smooth="yes"/>
      <point x="629" y="432" type="line" smooth="yes"/>
      <point x="629" y="254"/>
      <point x="582" y="208"/>
      <point x="488" y="208" type="curve" smooth="yes"/>
    </contour>
  </outline>
</glyph>
<glyph name="J" format="2">
  <advance width="946"/>
  <unicode hex="004A"/>
  <anchor x="473" y="0" name="bottom"/>
  <anchor x="683" y="1760" name="top"/>
  <outline>
    <contour>
      <point x="448.5" y="-20" type="curve" smooth="yes"/>
      <point x="674.5" y="-20"/>
      <point x="808.5" y="142"/>
      <point x="808.5" y="431" type="curve" smooth="yes"/>
      <point x="808.5" y="1760" type="line"/>
      <point x="540.5" y="1760" type="line"/>
      <point x="540.5" y="418" type="line" smooth="yes"/>
      <point x="540.5" y="290"/>
      <point x="528.5" y="210"/>
      <point x="440.5" y="210" type="curve" smooth="yes"/>
      <point x="353.5" y="210"/>
      <point x="341.5" y="297"/>
      <point x="341.5" y="402" type="curve" smooth="yes"/>
      <point x="341.5" y="703" type="line"/>
      <point x="82.5" y="703" type="line"/>
      <point x="82.5" y="389" type="line" smooth="yes"/>
      <point x="82.5" y="119"/>
      <point x="218.5" y="-20"/>
    </contour>
  </outline>
</glyph>
<glyph name="L" format="2">
  <advance width="752"/>
  <unicode hex="004C"/>
  <anchor x="400" y="1760" name="#exit"/>
  <anchor x="416" y="0" name="bottom"/>
  <anchor x="376" y="880" name="center"/>
  <anchor x="296" y="1760" name="top"/>
  <anchor x="732" y="1760" name="topright"/>
  <outline>
    <contour>
      <point x="132" y="0" type="line"/>
      <point x="739" y="0" type="line"/>
      <point x="739" y="228" type="line"/>
      <point x="400" y="228" type="line"/>
      <point x="400" y="1760" type="line"/>
      <point x="132" y="1760" type="line"/>
    </contour>
  </outline>
</glyph>
<glyph name="P" format="2">
  <advance width="943"/>
  <unicode hex="0050"/>
  <anchor x="472" y="0" name="bottom"/>
  <anchor x="472" y="1760" name="top"/>
  <outline>
    <contour>
      <point x="132" y="0" type="line"/>
      <point x="400" y="0" type="line"/>
      <point x="400" y="694" type="line"/>
      <point x="545" y="694" type="line" smooth="yes"/>
      <point x="821" y="694"/>
      <point x="894" y="886"/>
      <point x="894" y="1227" type="curve" smooth="yes"/>
      <point x="894" y="1264" type="line"/>
      <point x="894" y="1586"/>
      <point x="816" y="1760"/>
      <point x="536" y="1760" type="curve" smooth="yes"/>
      <point x="132" y="1760" type="line"/>
    </contour>
    <contour>
      <point x="400" y="915" type="line"/>
      <point x="400" y="1554" type="line"/>
      <point x="494" y="1554" type="line" smooth="yes"/>
      <point x="607" y="1554"/>
      <point x="627" y="1455"/>
      <point x="628" y="1264" type="curve"/>
      <point x="628" y="1230" type="line" smooth="yes"/>
      <point x="628" y="997"/>
      <point x="610" y="915"/>
      <point x="492" y="915" type="curve" smooth="yes"/>
    </contour>
  </outline>
</glyph>
<glyph name="T" format="2">
  <advance width="707"/>
  <unicode hex="0054"/>
  <anchor x="354" y="0" name="bottom"/>
  <anchor x="354" y="880" name="center"/>
  <anchor x="354" y="1760" name="top"/>
  <outline>
    <contour>
      <point x="224.082" y="0" type="line"/>
      <point x="491.082" y="0" type="line"/>
      <point x="491.082" y="1528" type="line"/>
      <point x="689.082" y="1528" type="line"/>
      <point x="689.082" y="1760" type="line"/>
      <point x="18.082" y="1760" type="line"/>
      <point x="18.082" y="1528" type="line"/>
      <point x="224.082" y="1528" type="line"/>
    </contour>
  </outline>
</glyph>
<glyph name="l" format="2">
  <advance width="531"/>
  <unicode hex="006C"/>
  <anchor x="271" y="1775" name="#exit"/>
  <anchor x="266" y="0" name="bottom"/>
  <anchor x="266" y="888" name="center"/>
  <anchor x="266" y="1775" name="top"/>
  <anchor x="501" y="1775" name="topright"/>
  <outline>
    <contour>
      <point x="132" y="0" type="line"/>
      <point x="396" y="0" type="line"/>
      <point x="396" y="1775" type="line"/>
      <point x="132" y="1775" type="line"/>
    </contour>
  </outline>
</glyph>
<glyph name="s" format="2">
  <advance width="862"/>
  <unicode hex="0073"/>
  <anchor x="431" y="0" name="bottom"/>
  <anchor x="431" y="1500" name="top"/>
  <outline>
    <contour>
      <point x="441.71" y="-19" type="curve" smooth="yes"/>
      <point x="688.71" y="-19"/>
      <point x="798.71" y="113"/>
      <point x="798.71" y="365" type="curve" smooth="yes"/>
      <point x="798.71" y="535"/>
      <point x="729" y="679"/>
      <point x="579.71" y="814" type="curve" smooth="yes"/>
      <point x="437.71" y="943" type="line" smooth="yes"/>
      <point x="362" y="1012"/>
      <point x="330.71" y="1088"/>
      <point x="331.71" y="1168" type="curve"/>
      <point x="334.71" y="1267"/>
      <point x="366.71" y="1301"/>
      <point x="436.71" y="1301" type="curve" smooth="yes"/>
      <point x="509.71" y="1301"/>
      <point x="535.71" y="1232"/>
      <point x="535.71" y="1100" type="curve" smooth="yes"/>
      <point x="535.71" y="1001" type="line"/>
      <point x="772.71" y="1001" type="line"/>
      <point x="772.71" y="1083" type="line" smooth="yes"/>
      <point x="772.71" y="1402"/>
      <point x="662.71" y="1518"/>
      <point x="434.71" y="1518" type="curve" smooth="yes"/>
      <point x="200.71" y="1518"/>
      <point x="79.71" y="1404"/>
      <point x="79.71" y="1150" type="curve" smooth="yes"/>
      <point x="79.71" y="993"/>
      <point x="141" y="865"/>
      <point x="264.71" y="753" type="curve" smooth="yes"/>
      <point x="399.71" y="631" type="line" smooth="yes"/>
      <point x="496" y="544"/>
      <point x="537.71" y="453"/>
      <point x="537.71" y="353" type="curve" smooth="yes"/>
      <point x="537.71" y="238"/>
      <point x="505.71" y="197"/>
      <point x="435.71" y="197" type="curve" smooth="yes"/>
      <point x="363.71" y="197"/>
      <point x="333.71" y="266"/>
      <point x="333.71" y="397" type="curve" smooth="yes"/>
      <point x="333.71" y="518" type="line"/>
      <point x="84.71" y="518" type="line"/>
      <point x="84.71" y="421" type="line" smooth="yes"/>
      <point x="84.71" y="109"/>
      <point x="200.71" y="-19"/>
    </contour>
  </outline>
</glyph>
<glyph name="v" format="2">
  <advance width="852"/>
  <unicode hex="0076"/>
  <anchor x="426" y="0" name="bottom"/>
  <anchor x="426" y="1500" name="top"/>
  <outline>
    <contour>
      <point x="263.923" y="0" type="line"/>
      <point x="588.923" y="0" type="line"/>
      <point x="805.923" y="1500" type="line"/>
      <point x="557.923" y="1500" type="line"/>
      <point x="474.923" y="703" type="line"/>
      <point x="446.923" y="343" type="line"/>
      <point x="426.923" y="343" type="line"/>
      <point x="393.923" y="702" type="line"/>
      <point x="296.923" y="1500" type="line"/>
      <point x="46.923" y="1500" type="line"/>
    </contour>
  </outline>
</glyph>
<glyph name="y" format="2">
  <advance width="859"/>
  <unicode hex="0079"/>
  <anchor x="430" y="0" name="bottom"/>
  <anchor x="430" y="1500" name="top"/>
  <outline>
    <contour>
      <point x="88.581" y="-265" type="line"/>
      <point x="370.581" y="-265" type="line" smooth="yes"/>
      <point x="509.581" y="-265"/>
      <point x="545.581" y="-207"/>
      <point x="567.581" y="-64" type="curve"/>
      <point x="827.581" y="1500" type="line"/>
      <point x="576.581" y="1500" type="line"/>
      <point x="488.581" y="733" type="line"/>
      <point x="452.581" y="329" type="line"/>
      <point x="430.581" y="329" type="line"/>
      <point x="390.581" y="733" type="line"/>
      <point x="294.581" y="1500" type="line"/>
      <point x="42.581" y="1500" type="line"/>
      <point x="282.581" y="68" type="line" smooth="yes"/>
      <point x="288.581" y="28"/>
      <point x="293.581" y="-25"/>
      <point x="283.581" y="-42" type="curve"/>
      <point x="278.581" y="-76"/>
      <point x="234.581" y="-82"/>
      <point x="175.581" y="-82" type="curve" smooth="yes"/>
      <point x="88.581" y="-82" type="line"/>
    </contour>
  </outline>
</glyph>
<glyph name="z" format="2">
  <advance width="732"/>
  <unicode hex="007A"/>
  <anchor x="366" y="0" name="bottom"/>
  <anchor x="366" y="750" name="center"/>
  <anchor x="366" y="1500" name="top"/>
  <outline>
    <contour>
      <point x="73.333" y="0" type="line"/>
      <point x="658.333" y="0" type="line"/>
      <point x="658.333" y="222" type="line"/>
      <point x="344.333" y="222" type="line"/>
      <point x="672.333" y="1309" type="line"/>
      <point x="672.333" y="1500" type="line"/>
      <point x="98.333" y="1500" type="line"/>
      <point x="98.333" y="1273" type="line"/>
      <point x="403.333" y="1273" type="line"/>
      <point x="73.333" y="200" type="line"/>
    </contour>
  </outline>
</glyph>
<glyph name="yen" format="2">
  <advance width="866"/>
  <unicode hex="00A5"/>
  <anchor x="439" y="0" name="bottom"/>
  <anchor x="439" y="1760" name="top"/>
  <anchor x="20" y="1760" name="topleft"/>
  <outline>
    <contour>
      <point x="94" y="315" type="line"/>
      <point x="774" y="315" type="line"/>
      <point x="774" y="468" type="line"/>
      <point x="550" y="468" type="line"/>
      <point x="550" y="619" type="line"/>
      <point x="774" y="619" type="line"/>
      <point x="774" y="770" type="line"/>
      <point x="94" y="770" type="line"/>
      <point x="94" y="619" type="line"/>
      <point x="340" y="619" type="line"/>
      <point x="340" y="468" type="line"/>
      <point x="94" y="468" type="line"/>
    </contour>
    <component base="Y"/>
  </outline>
</glyph>
<glyph name="ordfeminine" format="2">
  <advance width="927"/>
  <unicode hex="00AA"/>
  <outline>
    <contour>
      <point x="386" y="558" type="curve" smooth="yes"/>
      <point x="475" y="558"/>
      <point x="541" y="628"/>
      <point x="555" y="680" type="curve"/>
      <point x="555" y="570" type="line"/>
      <point x="767" y="570" type="line"/>
      <point x="767" y="1423" type="line" smooth="yes"/>
      <point x="767" y="1655"/>
      <point x="688" y="1780"/>
      <point x="481" y="1780" type="curve" smooth="yes"/>
      <point x="246" y="1780"/>
      <point x="183" y="1650"/>
      <point x="183" y="1432" type="curve" smooth="yes"/>
      <point x="183" y="1396" type="line"/>
      <point x="391" y="1396" type="line"/>
      <point x="391" y="1454" type="line" smooth="yes"/>
      <point x="391" y="1564"/>
      <point x="407" y="1610"/>
      <point x="473" y="1610" type="curve" smooth="yes"/>
      <point x="559" y="1610"/>
      <point x="553" y="1508"/>
      <point x="553" y="1385" type="curve" smooth="yes"/>
      <point x="553" y="1343" type="line"/>
      <point x="318" y="1255"/>
      <point x="166" y="1218"/>
      <point x="166" y="961" type="curve" smooth="yes"/>
      <point x="166" y="882" type="line"/>
      <point x="168" y="686"/>
      <point x="223" y="558"/>
    </contour>
    <contour>
      <point x="459" y="726" type="curve" smooth="yes"/>
      <point x="401" y="726"/>
      <point x="381" y="773"/>
      <point x="381" y="883" type="curve" smooth="yes"/>
      <point x="381" y="1004" type="line" smooth="yes"/>
      <point x="381" y="1123"/>
      <point x="421" y="1154"/>
      <point x="552" y="1210" type="curve"/>
      <point x="552" y="813" type="line"/>
      <point x="544" y="774"/>
      <point x="512" y="726"/>
    </contour>
  </outline>
</glyph>
<glyph name="uni00B5" format="2">
  <advance width="1010"/>
  <unicode hex="00B5"/>
  <outline>
    <contour>
      <point x="389" y="-19" type="curve" smooth="yes"/>
      <point x="516" y="-19"/>
      <point x="581" y="54"/>
      <point x="618" y="156" type="curve"/>
      <point x="618" y="0" type="line"/>
      <point x="883" y="0" type="line"/>
      <point x="883" y="1500" type="line"/>
      <point x="619" y="1500" type="line"/>
      <point x="618" y="379" type="line" smooth="yes"/>
      <point x="618" y="284"/>
      <point x="590" y="199"/>
      <point x="497" y="199" type="curve" smooth="yes"/>
      <point x="408" y="199"/>
      <point x="388" y="266"/>
      <point x="388" y="381" type="curve" smooth="yes"/>
      <point x="388" y="1500" type="line"/>
      <point x="122" y="1500" type="line"/>
      <point x="122" y="340" type="line" smooth="yes"/>
      <point x="122" y="101"/>
      <point x="211" y="-19"/>
    </contour>
    <contour>
      <point x="122" y="483" type="line"/>
      <point x="122" y="-265" type="line"/>
      <point x="389" y="-265" type="line"/>
      <point x="389" y="483" type="line"/>
    </contour>
  </outline>
</glyph>
<glyph name="Hbar" format="2">
  <advance width="1040"/>
  <unicode hex="0126"/>
  <anchor x="520" y="0" name="bottom"/>
  <anchor x="520" y="880" name="center"/>
  <anchor x="520" y="1760" name="top"/>
  <anchor x="20" y="1760" name="topleft"/>
  <outline>
    <contour>
      <point x="55" y="1378" type="line"/>
      <point x="1005" y="1378" type="line"/>
      <point x="1005" y="1509" type="line"/>
      <point x="55" y="1509" type="line"/>
    </contour>
    <contour>
      <point x="132" y="0" type="line"/>
      <point x="400" y="0" type="line"/>
      <point x="400" y="818" type="line"/>
      <point x="640" y="818" type="line"/>
      <point x="640" y="0" type="line"/>
      <point x="908" y="0" type="line"/>
      <point x="908" y="1760" type="line"/>
      <point x="640" y="1760" type="line"/>
      <point x="640" y="1048" type="line"/>
      <point x="400" y="1048" type="line"/>
      <point x="400" y="1760" type="line"/>
      <point x="132" y="1760" type="line"/>
    </contour>
  </outline>
</glyph>
<glyph name="Lslash" format="2">
  <advance width="794"/>
  <unicode hex="0141"/>
  <anchor x="416" y="0" name="bottom"/>
  <anchor x="376" y="880" name="center"/>
  <anchor x="296" y="1760" name="top"/>
  <anchor x="732" y="1760" name="topright"/>
  <outline>
    <contour>
      <point x="-1" y="732" type="line"/>
      <point x="615" y="961" type="line"/>
      <point x="615" y="1145" type="line"/>
      <point x="-1" y="916" type="line"/>
    </contour>
    <contour>
      <point x="132" y="0" type="line"/>
      <point x="739" y="0" type="line"/>
      <point x="739" y="228" type="line"/>
      <point x="400" y="228" type="line"/>
      <point x="400" y="1760" type="line"/>
      <point x="132" y="1760" type="line"/>
    </contour>
  </outline>
</glyph>
<glyph name="lslash" format="2">
  <advance width="640"/>
  <unicode hex="0142"/>
  <anchor x="307" y="0" name="bottom"/>
  <anchor x="307" y="888" name="center"/>
  <anchor x="307" y="1775" name="top"/>
  <anchor x="552" y="1775" name="topright"/>
  <outline>
    <contour>
      <point x="49" y="728" type="line"/>
      <point x="591" y="960" type="line"/>
      <point x="591" y="1153" type="line"/>
      <point x="49" y="921" type="line"/>
    </contour>
    <contour>
      <point x="173" y="0" type="line"/>
      <point x="437" y="0" type="line"/>
      <point x="437" y="1775" type="line"/>
      <point x="173" y="1775" type="line"/>
    </contour>
  </outline>
</glyph>
<glyph name="jdotless" format="2">
  <advance width="556"/>
  <unicode hex="0237"/>
  <anchor x="298" y="-273" name="bottom"/>
  <anchor x="298" y="1500" name="top"/>
  <outline>
    <contour>
      <point x="221" y="-197" type="curve" smooth="yes"/>
      <point x="351" y="-197"/>
      <point x="433" y="-109"/>
      <point x="433" y="79" type="curve" smooth="yes"/>
      <point x="433" y="1500" type="line"/>
      <point x="168" y="1500" type="line"/>
      <point x="168" y="69" type="line" smooth="yes"/>
      <point x="168" y="32"/>
      <point x="153" y="1"/>
      <point x="105" y="1" type="curve" smooth="yes"/>
      <point x="88" y="1"/>
      <point x="74" y="2"/>
      <point x="60" y="5" type="curve"/>
      <point x="60" y="-180" type="line"/>
      <point x="93" y="-189"/>
      <point x="146" y="-197"/>
    </contour>
  </outline>
</glyph>
<glyph name="gravecomb" format="2">
  <unicode hex="0300"/>
  <anchor x="260" y="1500" name="_top"/>
  <anchor x="260" y="2053" name="top"/>
  <outline>
    <contour>
      <point x="253" y="1640" type="line"/>
      <point x="409" y="1640" type="line"/>
      <point x="315" y="2053" type="line"/>
      <point x="50" y="2053" type="line"/>
    </contour>
  </outline>
</glyph>
<glyph name="acutecomb" format="2">
  <unicode hex="0301"/>
  <anchor x="199" y="1500" name="_top"/>
  <anchor x="199" y="2053" name="top"/>
  <outline>
    <contour>
      <point x="50" y="1640" type="line"/>
      <point x="206" y="1640" type="line"/>
      <point x="409" y="2053" type="line"/>
      <point x="144" y="2053" type="line"/>
    </contour>
  </outline>
</glyph>
<glyph name="circumflexcomb" format="2">
  <unicode hex="0302"/>
  <anchor x="390" y="1500" name="_top"/>
  <anchor x="390" y="1977" name="top"/>
  <outline>
    <contour>
      <point x="50" y="1640" type="line"/>
      <point x="304" y="1640" type="line"/>
      <point x="390" y="1876" type="line"/>
      <point x="476" y="1640" type="line"/>
      <point x="729" y="1640" type="line"/>
      <point x="541" y="1977" type="line"/>
      <point x="239" y="1977" type="line"/>
    </contour>
  </outline>
</glyph>
<glyph name="tildecomb" format="2">
  <unicode hex="0303"/>
  <anchor x="385" y="1500" name="_top"/>
  <anchor x="385" y="1895" name="top"/>
  <outline>
    <contour>
      <point x="538" y="1640" type="curve" smooth="yes"/>
      <point x="627" y="1640"/>
      <point x="681" y="1679"/>
      <point x="710" y="1816" type="curve"/>
      <point x="719" y="1864" type="line"/>
      <point x="577" y="1892" type="line"/>
      <point x="556" y="1832"/>
      <point x="540" y="1824"/>
      <point x="521" y="1821" type="curve"/>
      <point x="517" y="1821" type="line" smooth="yes"/>
      <point x="467" y="1821"/>
      <point x="323" y="1895"/>
      <point x="242" y="1895" type="curve" smooth="yes"/>
      <point x="154" y="1895"/>
      <point x="89" y="1848"/>
      <point x="50" y="1713" type="curve"/>
      <point x="180" y="1661" type="line"/>
      <point x="198" y="1696"/>
      <point x="209" y="1715"/>
      <point x="231" y="1720" type="curve" smooth="yes"/>
      <point x="238" y="1722"/>
      <point x="246" y="1722"/>
      <point x="254" y="1722" type="curve" smooth="yes"/>
      <point x="337" y="1722"/>
      <point x="450" y="1640"/>
    </contour>
  </outline>
</glyph>
<glyph name="macroncomb" format="2">
  <unicode hex="0304"/>
  <anchor x="328" y="1500" name="_top"/>
  <anchor x="328" y="1872" name="top"/>
  <outline>
    <contour>
      <point x="50" y="1690" type="line"/>
      <point x="606" y="1690" type="line"/>
      <point x="606" y="1872" type="line"/>
      <point x="50" y="1872" type="line"/>
    </contour>
  </outline>
</glyph>
<glyph name="ringcomb" format="2">
  <unicode hex="030A"/>
  <anchor x="283" y="1500" name="_top"/>
  <anchor x="283" y="2088" name="top"/>
  <outline>
    <contour>
      <point x="283" y="1640" type="curve" smooth="yes"/>
      <point x="430" y="1640"/>
      <point x="516" y="1737"/>
      <point x="516" y="1864" type="curve" smooth="yes"/>
      <point x="516" y="1991"/>
      <point x="430" y="2088"/>
      <point x="283" y="2088" type="curve" smooth="yes"/>
      <point x="137" y="2088"/>
      <point x="50" y="1991"/>
      <point x="50" y="1864" type="curve" smooth="yes"/>
      <point x="50" y="1736"/>
      <point x="137" y="1640"/>
    </contour>
    <contour>
      <point x="284" y="1734" type="curve" smooth="yes"/>
      <point x="205" y="1734"/>
      <point x="165" y="1799"/>
      <point x="165" y="1865" type="curve" smooth="yes"/>
      <point x="165" y="1930"/>
      <point x="205" y="1995"/>
      <point x="284" y="1995" type="curve" smooth="yes"/>
      <point x="363" y="1995"/>
      <point x="403" y="1930"/>
      <point x="403" y="1865" type="curve" smooth="yes"/>
      <point x="403" y="1799"/>
      <point x="363" y="1734"/>
    </contour>
  </outline>
</glyph>
<glyph name="hungarumlautcomb" format="2">
  <unicode hex="030B"/>
  <anchor x="361" y="1500" name="_top"/>
  <anchor x="361" y="2105" name="top"/>
  <outline>
    <contour>
      <point x="497" y="1640" type="line"/>
      <point x="771" y="2002" type="line"/>
      <point x="580" y="2105" type="line"/>
      <point x="374" y="1693" type="line"/>
    </contour>
    <contour>
      <point x="173" y="1640" type="line"/>
      <point x="406" y="2002" type="line"/>
      <point x="219" y="2105" type="line"/>
      <point x="50" y="1693" type="line"/>
    </contour>
  </outline>
</glyph>
<glyph name="dblgravecmb" format="2">
  <unicode hex="030F"/>
  <anchor x="481" y="1500" name="_top"/>
  <anchor x="481" y="2105" name="top"/>
  <outline>
    <contour>
      <point x="324" y="1640" type="line"/>
      <point x="447" y="1693" type="line"/>
      <point x="241" y="2105" type="line"/>
      <point x="50" y="2002" type="line"/>
    </contour>
    <contour>
      <point x="648" y="1640" type="line"/>
      <point x="771" y="1693" type="line"/>
      <point x="602" y="2105" type="line"/>
      <point x="415" y="2002" type="line"/>
    </contour>
  </outline>
</glyph>
<glyph name="commaturnedabovecomb" format="2">
  <unicode hex="0312"/>
  <anchor x="186" y="1500" name="_top"/>
  <anchor x="187" y="2189" name="top"/>
  <outline>
    <contour>
      <point x="263" y="2189" type="line"/>
      <point x="142" y="2189" type="line"/>
      <point x="50" y="1876" type="line"/>
      <point x="50" y="1622" type="line"/>
      <point x="323" y="1622" type="line"/>
      <point x="323" y="1885" type="line"/>
      <point x="208" y="1885" type="line"/>
    </contour>
  </outline>
</glyph>
<glyph name="cedillacomb" format="2">
  <unicode hex="0327"/>
  <anchor x="202" y="0" name="_bottom"/>
  <anchor x="198" y="-638" name="bottom"/>
  <outline>
    <contour>
      <point x="199" y="-638" type="curve" smooth="yes"/>
      <point x="382" y="-638"/>
      <point x="486" y="-522"/>
      <point x="486" y="-396" type="curve" smooth="yes"/>
      <point x="486" y="-290"/>
      <point x="409" y="-193"/>
      <point x="258" y="-141" type="curve"/>
      <point x="243" y="0" type="line"/>
      <point x="161" y="0" type="line"/>
      <point x="121" y="-196" type="line"/>
      <point x="203" y="-214"/>
      <point x="281" y="-269"/>
      <point x="281" y="-359" type="curve" smooth="yes"/>
      <point x="281" y="-434"/>
      <point x="239" y="-501"/>
      <point x="50" y="-501" type="curve"/>
      <point x="50" y="-612" type="line"/>
      <point x="99" y="-630"/>
      <point x="149" y="-638"/>
    </contour>
  </outline>
</glyph>
<glyph name="Delta" format="2">
  <advance width="921"/>
  <unicode hex="0394"/>
  <outline>
    <contour>
      <point x="34" y="0" type="line"/>
      <point x="887" y="0" type="line"/>
      <point x="641" y="1760" type="line"/>
      <point x="277" y="1760" type="line"/>
    </contour>
    <contour>
      <point x="306" y="180" type="line"/>
      <point x="443" y="1531" type="line"/>
      <point x="475" y="1531" type="line"/>
      <point x="612" y="180" type="line"/>
    </contour>
  </outline>
</glyph>
<glyph name="partialdiff" format="2">
  <advance width="1072"/>
  <unicode hex="2202"/>
  <outline>
    <contour>
      <point x="453.009" y="-26.347" type="curve" smooth="yes"/>
      <point x="591.932" y="-26.347"/>
      <point x="752" y="61"/>
      <point x="780" y="246" type="curve" smooth="yes"/>
      <point x="902" y="1042" type="line" smooth="yes"/>
      <point x="928" y="1209"/>
      <point x="931.213" y="1253.87"/>
      <point x="931.213" y="1294.86" type="curve" smooth="yes"/>
      <point x="931.213" y="1567.46"/>
      <point x="772.286" y="1654.83"/>
      <point x="581.955" y="1654.83" type="curve" smooth="yes"/>
      <point x="503.332" y="1654.83"/>
      <point x="419.351" y="1639.92"/>
      <point x="339" y="1617" type="curve"/>
      <point x="373" y="1456" type="line"/>
      <point x="430.096" y="1467.96"/>
      <point x="492.051" y="1480.33"/>
      <point x="547.625" y="1480.33" type="curve" smooth="yes"/>
      <point x="643.613" y="1480.33"/>
      <point x="720.565" y="1443.42"/>
      <point x="720.565" y="1303.7" type="curve" smooth="yes"/>
      <point x="721" y="1257"/>
      <point x="707" y="1168"/>
      <point x="685" y="1034" type="curve"/>
      <point x="617.095" y="1056.93"/>
      <point x="553.362" y="1067.5"/>
      <point x="504.094" y="1067.5" type="curve" smooth="yes"/>
      <point x="261" y="1068"/>
      <point x="163" y="702"/>
      <point x="162.847" y="284.216" type="curve" smooth="yes"/>
      <point x="162.847" y="82.389"/>
      <point x="297.74" y="-26.347"/>
    </contour>
    <contour>
      <point x="459" y="175" type="curve" smooth="yes"/>
      <point x="399.67" y="175"/>
      <point x="386" y="219"/>
      <point x="386" y="314" type="curve" smooth="yes"/>
      <point x="386" y="569"/>
      <point x="427" y="901"/>
      <point x="559.797" y="900.76" type="curve" smooth="yes"/>
      <point x="583.992" y="900.76"/>
      <point x="612.777" y="893.32"/>
      <point x="647" y="879" type="curve"/>
      <point x="560" y="301" type="line" smooth="yes"/>
      <point x="549" y="231"/>
      <point x="525" y="175"/>
    </contour>
  </outline>
</glyph>
<glyph name="lozenge" format="2">
  <advance width="921"/>
  <unicode hex="25CA"/>
  <outline>
    <contour>
      <point x="277" y="0" type="line"/>
      <point x="648" y="0" type="line"/>
      <point x="887" y="875" type="line"/>
      <point x="648" y="1762" type="line"/>
      <point x="277" y="1762" type="line"/>
      <point x="34" y="875" type="line"/>
    </contour>
    <contour>
      <point x="443" y="220" type="line"/>
      <point x="309" y="875" type="line"/>
      <point x="443" y="1530" type="line"/>
      <point x="475" y="1530" type="line"/>
      <point x="609" y="875" type="line"/>
      <point x="475" y="220" type="line"/>
    </contour>
  </outline>
</glyph>
<glyph name="caroncomb.alt" format="2">
  <anchor x="-130" y="2189" name="#entry"/>
  <anchor x="186" y="1500" name="_top"/>
  <anchor x="187" y="2189" name="top"/>
  <outline>
    <contour>
      <point x="140" y="1622" type="line"/>
      <point x="261" y="1622" type="line"/>
      <point x="353" y="1935" type="line"/>
      <point x="353" y="2189" type="line"/>
      <point x="80" y="2189" type="line"/>
      <point x="80" y="1926" type="line"/>
      <point x="195" y="1926" type="line"/>
    </contour>
  </outline>
</glyph>
